<?xml version="1.0" standalone="no"?>
<!DOCTYPE svg PUBLIC "-//W3C//DTD SVG 20010904//EN"
 "http://www.w3.org/TR/2001/REC-SVG-20010904/DTD/svg10.dtd">
<svg version="1.0" xmlns="http://www.w3.org/2000/svg"
 width="1280.000000pt" height="948.000000pt" viewBox="0 0 1280.000000 948.000000"
 preserveAspectRatio="xMidYMid meet">
<metadata>
Created by potrace 1.15, written by Peter Selinger 2001-2017
</metadata>
<g transform="translate(0.000000,948.000000) scale(0.100000,-0.100000)"
fill="#000000" stroke="none">
<path d="M1130 9281 l0 -199 -210 -7 -210 -7 0 -35 c0 -32 -2 -34 -27 -29 -16
3 -71 13 -123 21 -52 9 -103 18 -112 21 -15 4 -18 -1 -18 -30 0 -40 -6 -42
-72 -27 l-38 9 0 -35 c0 -32 -2 -35 -25 -31 -23 5 -25 2 -25 -28 0 -41 3 -41
-144 -14 -60 11 -113 20 -118 20 -4 0 -8 -1698 -8 -3772 l0 -3773 1463 -258
c804 -141 2139 -376 2967 -522 828 -146 1514 -267 1525 -270 15 -3 23 -18 32
-55 33 -139 190 -244 383 -257 221 -15 449 129 450 285 0 17 3 32 6 32 6 0
5304 933 5763 1015 107 19 198 35 203 35 4 0 8 1699 8 3775 l0 3775 -22 -5
c-54 -11 -254 -45 -270 -45 -13 0 -18 8 -18 26 0 20 -4 25 -22 22 -19 -3 -24
2 -26 30 -3 25 -7 32 -20 28 -9 -2 -34 -7 -54 -11 l-38 -6 0 36 c0 35 -2 36
-27 31 -16 -3 -82 -15 -148 -26 -66 -12 -128 -23 -137 -26 -15 -5 -18 2 -18
44 l0 49 -92 7 c-50 3 -144 6 -210 6 l-118 0 0 200 c0 110 -2 200 -4 200 -2 0
-66 -25 -142 -55 -269 -107 -566 -194 -809 -237 -192 -33 -442 -30 -870 10
-521 50 -631 55 -954 49 -369 -7 -617 -37 -858 -102 -467 -128 -1021 -490
-1477 -966 l-109 -114 -181 180 c-522 520 -1060 840 -1577 939 -279 54 -374
61 -809 60 -386 0 -423 -2 -790 -36 -212 -20 -437 -39 -500 -43 -323 -18 -760
75 -1233 264 -70 28 -130 51 -132 51 -3 0 -5 -89 -5 -199z"/>
</g>
</svg>
