<svg width="1024" height="768" viewBox="0 0 1024 768" fill="none" xmlns="http://www.w3.org/2000/svg">
<g clip-path="url(#clip0_142_298)">
<path d="M1068 697.795C1068 803.834 689.895 807.795 522 807.795C354.105 807.795 -72 828.039 -72 722C-72 615.961 318.105 495 486 495C653.895 495 1068 591.756 1068 697.795Z" fill="#6E894C" fill-opacity="0.94"/>
<path d="M827.5 72.8853C794.241 72.3975 782.464 77.7616 778 100.885C778.632 120.881 797.011 129.746 836 123.885C860.861 133.868 872.721 130.739 892.5 119.385C912.094 126.265 922.314 125.953 929.5 103.385C929.085 91.7848 923.816 82.8064 900.5 81.8853C870.825 59.3138 854.872 57.8303 827.5 72.8853Z" fill="#F3EDED"/>
<path d="M903.5 297.885C870.241 297.397 858.464 302.762 854 325.885C854.632 345.881 873.011 354.746 912 348.885C936.861 358.868 948.721 355.739 968.5 344.385C988.094 351.265 998.314 350.953 1005.5 328.385C1005.09 316.785 999.816 307.806 976.5 306.885C946.825 284.314 930.872 282.83 903.5 297.885Z" fill="#F3EDED"/>
<path d="M443.5 105.885C410.241 105.397 398.464 110.762 394 133.885C394.632 153.881 413.011 162.746 452 156.885C476.861 166.868 488.721 163.739 508.5 152.385C528.094 159.265 538.314 158.953 545.5 136.385C545.085 124.785 539.816 115.806 516.5 114.885C486.825 92.3138 470.872 90.8303 443.5 105.885Z" fill="#F3EDED"/>
<path d="M416 456.5L401 442.5H519.5V242.5L503 226.5H643L628 242.5V359L645.5 345V304H718.5V378.5L628 449.5V542.5H527.5H416V456.5Z" fill="#C6AF80"/>
<path d="M520 361V296.137L507.143 285.027V256H455V309.754L520 361Z" fill="#D3C29C"/>
<path d="M627.5 450V359.5L645 345.5V303.5H718.5V378.5L627.5 450Z" fill="#D3C29C"/>
<path d="M415 456.5L399.5 442H541L527.5 456.5V543H415V456.5Z" fill="#BA9D65"/>
<path d="M479.162 199L439 256L519 255.68L479.162 199Z" fill="#4B301B"/>
<path d="M470 327L384 441.5H556L470 327Z" fill="#5C3B22"/>
<path d="M681 214L618 303.5L742.5 303L681 214Z" fill="#5C3B22"/>
<path d="M572 93L482.5 226.5L662.5 226L572 93Z" fill="#5C3B22"/>
<path d="M466 227C467.938 229.256 468.743 228.831 470 227" stroke="#765109" stroke-width="2" stroke-linecap="round"/>
<path d="M473 220C474.938 222.256 475.743 221.831 477 220" stroke="#765109" stroke-width="2" stroke-linecap="round"/>
<path d="M474 232C475.938 234.256 476.743 233.831 478 232" stroke="#765109" stroke-width="2" stroke-linecap="round"/>
<path d="M462 237C463.938 239.256 464.743 238.831 466 237" stroke="#765109" stroke-width="2" stroke-linecap="round"/>
<path d="M661 250.5C664.905 254.385 667.093 254.27 671 250.5" stroke="#765109" stroke-width="2" stroke-linecap="round"/>
<path d="M668 242C671.905 245.885 674.093 245.77 678 242" stroke="#765109" stroke-width="2" stroke-linecap="round"/>
<path d="M669 259C672.905 262.885 675.093 262.77 679 259" stroke="#765109" stroke-width="2" stroke-linecap="round"/>
<path d="M662 276C665.905 279.885 668.093 279.77 672 276" stroke="#765109" stroke-width="2" stroke-linecap="round"/>
<path d="M653 265C656.905 268.885 659.093 268.77 663 265" stroke="#765109" stroke-width="2" stroke-linecap="round"/>
<path d="M542 146.5C549.162 153.391 553.005 153.619 559.5 146.5" stroke="#765109" stroke-width="2" stroke-linecap="round"/>
<path d="M554 160C561.162 166.891 565.005 167.119 571.5 160" stroke="#765109" stroke-width="2" stroke-linecap="round"/>
<path d="M545 184C552.162 190.891 556.005 191.119 562.5 184" stroke="#765109" stroke-width="2" stroke-linecap="round"/>
<path d="M530 167C537.162 173.891 541.005 174.119 547.5 167" stroke="#765109" stroke-width="2" stroke-linecap="round"/>
<path d="M551 133C558.162 139.891 562.005 140.119 568.5 133" stroke="#765109" stroke-width="2" stroke-linecap="round"/>
<path d="M429.5 391C437.063 397.192 440.787 396.283 447 391" stroke="#765109" stroke-width="2" stroke-linecap="round"/>
<path d="M443 406C450.563 412.192 454.287 411.283 460.5 406" stroke="#765109" stroke-width="2" stroke-linecap="round"/>
<path d="M450 366C457.563 372.192 461.287 371.283 467.5 366" stroke="#765109" stroke-width="2" stroke-linecap="round"/>
<path d="M462 353C469.563 359.192 473.287 358.283 479.5 353" stroke="#765109" stroke-width="2" stroke-linecap="round"/>
<path d="M496 542.5H447V506.5C465.997 484.985 477.311 484 496 506.499V542.5Z" fill="#5C3B22"/>
<path d="M606 439.5L580.5 439.5V421.5C589.102 409.843 598.004 408.798 606 421.5V439.5Z" fill="#D7CEBE" stroke="#5C3B22" stroke-width="3"/>
<path d="M605.5 292.139L580 292.139V274.138C588.602 262.482 597.504 261.437 605.5 274.139V292.139Z" fill="#D7CEBE" stroke="#5C3B22" stroke-width="3"/>
<path d="M559.5 371.139L534 371.139V353.138C542.602 341.482 551.504 340.437 559.5 353.139V371.139Z" fill="#D7CEBE" stroke="#5C3B22" stroke-width="3"/>
<path d="M694.5 336.139L669 336.139V318.138C677.602 306.482 686.504 305.437 694.5 318.139V336.139Z" fill="#D7CEBE" stroke="#5C3B22" stroke-width="3"/>
<path d="M487 287L466 287V272.408C473.084 262.959 480.415 262.112 487 272.408V287Z" fill="#D7CEBE" stroke="#5C3B22" stroke-width="3"/>
<rect x="579" y="371" width="29" height="13" rx="2" fill="#9B7D46"/>
<rect x="539" y="393" width="29" height="13" rx="2" fill="#9B7D46"/>
<rect x="534" y="296" width="26" height="13" rx="2" fill="#9B7D46"/>
<path d="M560 318C560 316.895 560.895 316 562 316H586C587.105 316 588 316.895 588 318V327C588 328.105 587.105 329 586 329H562C560.895 329 560 328.105 560 327V318Z" fill="#9B7D46"/>
<path d="M654 346C654 344.895 654.895 344 656 344H672C673.105 344 674 344.895 674 346V352C674 353.105 673.105 354 672 354H656C654.895 354 654 353.105 654 352V346Z" fill="#9B7D46"/>
<path d="M689 350C689 348.895 689.895 348 691 348H707C708.105 348 709 348.895 709 350V356C709 357.105 708.105 358 707 358H691C689.895 358 689 357.105 689 356V350Z" fill="#9B7D46"/>
<path d="M669 368C669 366.895 669.895 366 671 366H687C688.105 366 689 366.895 689 368V374C689 375.105 688.105 376 687 376H671C669.895 376 669 375.105 669 374V368Z" fill="#9B7D46"/>
<path d="M463 298C463 296.895 463.895 296 465 296H477C478.105 296 479 296.895 479 298V301C479 302.105 478.105 303 477 303H465C463.895 303 463 302.105 463 301V298Z" fill="#9B7D46"/>
<path d="M482 307C482 305.895 482.895 305 484 305H496C497.105 305 498 305.895 498 307V310C498 311.105 497.105 312 496 312H484C482.895 312 482 311.105 482 310V307Z" fill="#9B7D46"/>
<path d="M91.5 292.885C58.2412 292.397 46.4637 297.762 42 320.885C42.6319 340.881 61.0106 349.746 100 343.885C124.861 353.868 136.721 350.739 156.5 339.385C176.094 346.265 186.314 345.953 193.5 323.385C193.085 311.785 187.816 302.806 164.5 301.885C134.825 279.314 118.872 277.83 91.5 292.885Z" fill="#F3EDED"/>
</g>
<defs>
<clipPath id="clip0_142_298">
<rect width="1024" height="768" fill="white"/>
</clipPath>
</defs>
</svg>
