<?xml version="1.0" standalone="no"?>
<!DOCTYPE svg PUBLIC "-//W3C//DTD SVG 20010904//EN"
 "http://www.w3.org/TR/2001/REC-SVG-20010904/DTD/svg10.dtd">
<svg version="1.0" xmlns="http://www.w3.org/2000/svg"
 width="1280.000000pt" height="1136.000000pt" viewBox="0 0 1280.000000 1136.000000"
 preserveAspectRatio="xMidYMid meet">
<metadata>
Created by potrace 1.15, written by Peter Selinger 2001-2017
</metadata>
<g transform="translate(0.000000,1136.000000) scale(0.100000,-0.100000)"
fill="#000000" stroke="none">
<path d="M7350 11353 c-159 -25 -252 -60 -370 -138 -228 -151 -383 -306 -767
-765 -723 -866 -3255 -3876 -3266 -3882 -7 -4 -300 -70 -652 -147 -1537 -337
-2013 -444 -2051 -460 -152 -67 -228 -282 -241 -681 -23 -741 216 -1967 493
-2524 121 -244 245 -359 402 -373 32 -3 584 18 1227 47 l1170 53 1570 -1043
c1489 -990 1574 -1049 1660 -1135 353 -355 812 -403 1193 -123 530 389 961
1449 1216 2988 99 594 159 1129 203 1820 21 331 24 1492 5 1860 -32 599 -61
949 -118 1405 -215 1751 -663 2819 -1279 3050 -122 46 -285 66 -395 48z"/>
<path d="M10591 10354 c194 -233 271 -332 388 -507 312 -464 584 -1048 776
-1667 522 -1685 508 -3700 -36 -5360 -210 -640 -494 -1217 -826 -1679 -89
-124 -250 -326 -287 -360 -14 -14 -26 -28 -26 -32 0 -4 49 19 109 51 1008 535
1780 1900 2026 3584 150 1028 97 2127 -150 3097 -317 1240 -935 2236 -1693
2726 -113 73 -301 171 -281 147z"/>
<path d="M9340 9684 c8 -10 40 -48 70 -84 640 -756 1088 -1951 1214 -3235 23
-236 27 -294 35 -560 50 -1596 -367 -3126 -1129 -4140 -54 -71 -123 -158 -155
-192 -31 -35 -54 -63 -51 -63 14 0 147 72 230 124 584 369 1083 1097 1379
2011 419 1296 402 2882 -45 4155 -141 402 -347 814 -558 1112 -213 301 -472
564 -726 734 -107 71 -284 164 -264 138z"/>
</g>
</svg>
