<svg width="337" height="323" viewBox="0 0 337 323" fill="none" xmlns="http://www.w3.org/2000/svg">
<ellipse cx="181.99" cy="63.9888" rx="118.823" ry="63.9888" fill="#676161"/>
<ellipse cx="182.477" cy="147.079" rx="150.477" ry="107.921" fill="#676161"/>
<ellipse cx="182.477" cy="54.9647" rx="83.7986" ry="36.0424" fill="#81B73C" fill-opacity="0.94"/>
<path d="M117 242C117 273.48 90.8087 262.5 58.5 262.5C26.1913 262.5 0 273.48 0 242C0 210.52 26.1913 185 58.5 185C90.8087 185 117 210.52 117 242Z" fill="#E4DBDB"/>
<path d="M336.104 242C336.104 273.48 309.913 262.5 277.604 262.5C245.295 262.5 219.104 273.48 219.104 242C219.104 210.52 245.295 185 277.604 185C309.913 185 336.104 210.52 336.104 242Z" fill="#E4DBDB"/>
<path d="M229.533 300.5C229.533 331.98 203.342 321 171.033 321C138.725 321 112.533 331.98 112.533 300.5C112.533 269.02 138.725 243.5 171.033 243.5C203.342 243.5 229.533 269.02 229.533 300.5Z" fill="#E4DBDB"/>
</svg>
