<svg width="1024" height="768" viewBox="0 0 1024 768" fill="none" xmlns="http://www.w3.org/2000/svg">
<rect width="1024" height="768" fill="#C1A7D1" fill-opacity="0.84"/>
<rect y="576" width="1024" height="192" fill="#C8AB75"/>
<path d="M140 146.551C140 135.189 148.652 125.696 159.965 124.645L226.141 118.496C240.01 117.207 251.571 128.967 250.044 142.812L248.159 159.911C246.93 171.06 237.509 179.5 226.292 179.5H162C149.85 179.5 140 169.65 140 157.5V146.551Z" fill="#A284B9"/>
<path d="M76.7427 87.3345C72.0963 72.3907 84.0981 57.5107 99.6869 58.888L171.436 65.2273C182.792 66.2306 191.5 75.7421 191.5 87.1419V93.5C191.5 105.65 181.65 115.5 169.5 115.5H101.699C92.0644 115.5 83.551 109.232 80.6906 100.032L76.7427 87.3345Z" fill="#A284B9"/>
<path d="M226.479 296.257C231.028 281.322 219.007 266.532 203.457 267.935L133.024 274.287C121.685 275.309 113 284.813 113 296.198V303C113 315.15 122.85 325 135 325H201.426C211.107 325 219.651 318.672 222.472 309.411L226.479 296.257Z" fill="#A284B9"/>
<path d="M25.2791 211.889C19.9727 196.887 31.8579 181.387 47.7235 182.619L162.704 191.55C174.159 192.439 183 201.994 183 213.484V229C183 241.15 173.15 251 161 251H54.6667C45.3445 251 37.0344 245.125 33.9258 236.336L25.2791 211.889Z" fill="#A284B9"/>
<path d="M37.538 137.077C41.5424 132.072 47.8946 129.556 54.2403 130.463L101.552 137.222C107.041 138.006 111.623 141.809 113.404 147.06C116.641 156.601 109.547 166.5 99.4712 166.5H51.6792C36.4942 166.5 28.052 148.935 37.538 137.077Z" fill="#A284B9"/>
<path d="M206.538 221.077C210.542 216.072 216.895 213.556 223.24 214.463L270.552 221.222C276.041 222.006 280.623 225.809 282.404 231.06C285.641 240.601 278.547 250.5 268.471 250.5H220.679C205.494 250.5 197.052 232.935 206.538 221.077Z" fill="#A284B9"/>
<path d="M835 146.551C835 135.189 843.652 125.696 854.965 124.645L921.141 118.496C935.01 117.207 946.571 128.967 945.044 142.812L943.159 159.911C941.93 171.06 932.509 179.5 921.292 179.5H857C844.85 179.5 835 169.65 835 157.5V146.551Z" fill="#A284B9"/>
<path d="M771.743 87.3345C767.096 72.3907 779.098 57.5107 794.687 58.888L866.436 65.2273C877.792 66.2306 886.5 75.7421 886.5 87.1419V93.5C886.5 105.65 876.65 115.5 864.5 115.5H796.699C787.064 115.5 778.551 109.232 775.691 100.032L771.743 87.3345Z" fill="#A284B9"/>
<path d="M921.479 296.257C926.028 281.322 914.007 266.532 898.457 267.935L828.024 274.287C816.685 275.309 808 284.813 808 296.198V303C808 315.15 817.85 325 830 325H896.426C906.107 325 914.651 318.672 917.472 309.411L921.479 296.257Z" fill="#A284B9"/>
<path d="M720.279 211.889C714.973 196.887 726.858 181.387 742.724 182.619L857.704 191.55C869.159 192.439 878 201.994 878 213.484V229C878 241.15 868.15 251 856 251H749.667C740.344 251 732.034 245.125 728.926 236.336L720.279 211.889Z" fill="#A284B9"/>
<path d="M732.538 137.077C736.542 132.072 742.895 129.556 749.24 130.463L796.552 137.222C802.041 138.006 806.623 141.809 808.404 147.06C811.641 156.601 804.547 166.5 794.471 166.5H746.679C731.494 166.5 723.052 148.935 732.538 137.077Z" fill="#A284B9"/>
<path d="M901.538 221.077C905.542 216.072 911.895 213.556 918.24 214.463L965.552 221.222C971.041 222.006 975.623 225.809 977.404 231.06C980.641 240.601 973.547 250.5 963.471 250.5H915.679C900.494 250.5 892.052 232.935 901.538 221.077Z" fill="#A284B9"/>
<path d="M94.538 502.077C98.5424 497.072 104.895 494.556 111.24 495.463L158.552 502.222C164.041 503.006 168.623 506.809 170.404 512.06C173.641 521.601 166.547 531.5 156.471 531.5H108.679C93.4942 531.5 85.052 513.935 94.538 502.077Z" fill="#A284B9"/>
<path d="M246.531 456.375C249.69 441.54 237.242 428.032 222.199 429.973L186.186 434.618C175.214 436.033 167 445.375 167 456.437V464C167 476.15 176.85 486 189 486H222.413C232.797 486 241.767 478.739 243.93 468.583L246.531 456.375Z" fill="#A284B9"/>
<path d="M47.7504 436.428C44.4584 421.589 56.8474 407.962 71.9318 409.83L127.704 416.737C138.724 418.101 147 427.465 147 438.57V455C147 467.15 137.15 477 125 477H74.4053C64.0909 477 55.1613 469.834 52.9274 459.765L47.7504 436.428Z" fill="#A284B9"/>
<path d="M789.538 502.077C793.542 497.072 799.895 494.556 806.24 495.463L853.552 502.222C859.041 503.006 863.623 506.809 865.404 512.06C868.641 521.601 861.547 531.5 851.471 531.5H803.679C788.494 531.5 780.052 513.935 789.538 502.077Z" fill="#A284B9"/>
<path d="M941.531 456.375C944.69 441.54 932.242 428.032 917.199 429.973L881.186 434.618C870.214 436.033 862 445.375 862 456.437V464C862 476.15 871.85 486 884 486H917.413C927.797 486 936.767 478.739 938.93 468.583L941.531 456.375Z" fill="#A284B9"/>
<path d="M742.75 436.428C739.458 421.589 751.847 407.962 766.932 409.83L822.704 416.737C833.724 418.101 842 427.465 842 438.57V455C842 467.15 832.15 477 820 477H769.405C759.091 477 750.161 469.834 747.927 459.765L742.75 436.428Z" fill="#A284B9"/>
<path d="M432.538 118.077C436.542 113.072 442.895 110.556 449.24 111.463L496.552 118.222C502.041 119.006 506.623 122.809 508.404 128.06C511.641 137.601 504.547 147.5 494.471 147.5H446.679C431.494 147.5 423.052 129.935 432.538 118.077Z" fill="#A284B9"/>
<path d="M584.531 72.3749C587.69 57.5395 575.242 44.0324 560.199 45.9728L524.186 50.6178C513.214 52.0329 505 61.3748 505 72.4371V80C505 92.1503 514.85 102 527 102H560.413C570.797 102 579.767 94.7392 581.93 84.5829L584.531 72.3749Z" fill="#A284B9"/>
<path d="M385.75 52.4283C382.458 37.5894 394.847 23.9624 409.932 25.8303L465.704 32.7366C476.724 34.1013 485 43.465 485 54.5698V71C485 83.1502 475.15 93 463 93H412.405C402.091 93 393.161 85.8343 390.927 75.7648L385.75 52.4283Z" fill="#A284B9"/>
<path d="M485.171 298.723C485.171 287.289 476.413 277.761 465.02 276.801L387.615 270.273C373.713 269.1 362.244 280.998 363.926 294.848L366.028 312.153C367.37 323.196 376.743 331.5 387.868 331.5H463.171C475.321 331.5 485.171 321.65 485.171 309.5V298.723Z" fill="#A284B9"/>
<path d="M554.73 239.742C559.864 224.754 547.951 209.416 532.158 210.682L448.669 217.377C437.237 218.294 428.427 227.838 428.427 239.306V245.5C428.427 257.65 438.277 267.5 450.427 267.5H529.502C538.904 267.5 547.267 261.525 550.314 252.63L554.73 239.742Z" fill="#A284B9"/>
<path d="M390.019 448.65C384.992 433.672 396.923 418.435 412.671 419.723L494.715 426.439C506.131 427.373 514.92 436.911 514.92 448.365V455C514.92 467.15 505.07 477 492.92 477H415.357C405.904 477 397.508 470.962 394.5 462L390.019 448.65Z" fill="#A284B9"/>
<path d="M611.382 364.377C617.245 349.333 605.444 333.308 589.337 334.443L458.246 343.684C446.724 344.496 437.793 354.08 437.793 365.63V381C437.793 393.15 447.642 403 459.793 403H581.293C590.36 403 598.499 397.437 601.791 388.988L611.382 364.377Z" fill="#A284B9"/>
<path d="M597.345 288.26C593.344 283.721 587.349 281.466 581.348 282.244L526.41 289.367C521.036 290.064 516.488 293.675 514.59 298.751C511.016 308.311 518.085 318.5 528.291 318.5H583.689C599.36 318.5 607.707 300.016 597.345 288.26Z" fill="#A284B9"/>
<path d="M411.137 372.26C407.136 367.721 401.142 365.466 395.141 366.244L340.203 373.367C334.829 374.064 330.28 377.675 328.383 382.751C324.809 392.311 331.877 402.5 342.084 402.5H397.482C413.153 402.5 421.5 384.016 411.137 372.26Z" fill="#A284B9"/>
</svg>
